<svg width="28" height="27" viewBox="0 0 28 27" fill="none" xmlns="http://www.w3.org/2000/svg">
<path d="M20.9375 0H6.97917C2.79167 0 0 2.79167 0 6.97917V15.3542C0 19.5417 2.79167 22.3333 6.97917 22.3333V25.3065C6.97917 26.4231 8.22146 27.0931 9.14271 26.465L15.3542 22.3333H20.9375C25.125 22.3333 27.9167 19.5417 27.9167 15.3542V6.97917C27.9167 2.79167 25.125 0 20.9375 0ZM13.9583 16.9873C13.3721 16.9873 12.9115 16.5127 12.9115 15.9404C12.9115 15.3681 13.3721 14.8935 13.9583 14.8935C14.5446 14.8935 15.0052 15.3681 15.0052 15.9404C15.0052 16.5127 14.5446 16.9873 13.9583 16.9873ZM15.7171 11.1946C15.1727 11.5575 15.0052 11.7948 15.0052 12.1856V12.4787C15.0052 13.051 14.5306 13.5256 13.9583 13.5256C13.386 13.5256 12.9115 13.051 12.9115 12.4787V12.1856C12.9115 10.5665 14.0979 9.77083 14.5446 9.46375C15.061 9.11479 15.2285 8.8775 15.2285 8.51458C15.2285 7.81666 14.6562 7.24437 13.9583 7.24437C13.2604 7.24437 12.6881 7.81666 12.6881 8.51458C12.6881 9.08687 12.2135 9.56146 11.6413 9.56146C11.069 9.56146 10.5944 9.08687 10.5944 8.51458C10.5944 6.65812 12.1019 5.15062 13.9583 5.15062C15.8148 5.15062 17.3223 6.65812 17.3223 8.51458C17.3223 10.1058 16.1498 10.9015 15.7171 11.1946Z" fill="#2FBA38"/>
</svg>
