<svg width="18" height="18" viewBox="0 0 18 18" fill="none" xmlns="http://www.w3.org/2000/svg">
<rect width="14" height="18" rx="1" fill="#9DE9A2"/>
<path d="M2 2.80746V5H4V2.80746C4 2.36225 3.55138 2 3 2C2.44863 2 2 2.36225 2 2.80746Z" fill="white"/>
<path d="M2 7.80746V10H4V7.80746C4 7.36225 3.55138 7 3 7C2.44863 7 2 7.36225 2 7.80746Z" fill="white"/>
<path d="M2 12.8075V15H4V12.8075C4 12.3622 3.55138 12 3 12C2.44863 12 2 12.3622 2 12.8075Z" fill="white"/>
<path d="M6 7.80746V10H8V7.80746C8 7.36225 7.55137 7 7 7C6.44863 7 6 7.36225 6 7.80746Z" fill="white"/>
<path d="M6 2.80746V5H8V2.80746C8 2.36225 7.55137 2 7 2C6.44863 2 6 2.36225 6 2.80746Z" fill="white"/>
<path d="M6 12.8075V15H8V12.8075C8 12.3622 7.55137 12 7 12C6.44863 12 6 12.3622 6 12.8075Z" fill="white"/>
<path d="M10 7.80746V10H12V7.80746C12 7.36225 11.5514 7 11 7C10.4486 7 10 7.36225 10 7.80746Z" fill="white"/>
<path d="M10 2.80746V5H12V2.80746C12 2.36225 11.5514 2 11 2C10.4486 2 10 2.36225 10 2.80746Z" fill="white"/>
<circle cx="13.5" cy="12.5" r="4" fill="#9DE9A2" stroke="white"/>
</svg>
